<?xml version="1.0" standalone="no"?>
<!DOCTYPE svg PUBLIC "-//W3C//DTD SVG 20010904//EN"
 "http://www.w3.org/TR/2001/REC-SVG-20010904/DTD/svg10.dtd">
<svg version="1.0" xmlns="http://www.w3.org/2000/svg"
 width="603.000000pt" height="603.000000pt" viewBox="0 0 603.000000 603.000000"
 preserveAspectRatio="xMidYMid meet">
<metadata>
Created by potrace 1.14, written by Peter Selinger 2001-2017
</metadata>
<g transform="translate(0.000000,603.000000) scale(0.100000,-0.100000)"
fill="#000000" stroke="none">
<path d="M985 5918 c-2 -7 -4 -267 -2 -577 2 -492 4 -564 17 -567 8 -1 33 -5
55 -9 22 -3 51 -8 65 -11 14 -2 45 -6 70 -9 25 -3 68 -8 95 -11 28 -3 223 -7
435 -9 212 -2 399 -6 415 -9 17 -2 55 -8 85 -11 126 -15 267 -57 386 -116 73
-35 93 -48 142 -89 6 -6 12 -8 12 -5 0 13 151 -133 208 -201 l24 -28 26 35
c68 86 215 213 311 268 88 49 269 110 377 126 21 4 50 8 64 11 66 12 152 15
490 19 324 3 445 7 530 20 14 2 50 7 80 10 66 9 86 12 111 20 22 7 20 -54 20
595 0 579 0 562 -11 555 -5 -3 -29 -8 -52 -10 -24 -3 -54 -7 -68 -10 -14 -3
-54 -7 -90 -10 -36 -3 -92 -7 -125 -10 -96 -9 -281 -16 -555 -21 -294 -5 -348
-8 -494 -30 -75 -11 -228 -53 -283 -79 -30 -14 -62 -25 -69 -25 -8 0 -14 -4
-14 -9 0 -5 -10 -13 -22 -17 -20 -6 -149 -89 -185 -119 -7 -5 -19 -15 -26 -22
-11 -9 -20 -8 -38 5 -13 9 -26 19 -29 23 -11 15 -178 118 -230 143 -96 44
-232 84 -345 101 -22 4 -51 8 -65 10 -68 11 -197 18 -415 21 -267 4 -472 10
-555 18 -30 3 -91 8 -135 11 -44 3 -87 8 -95 10 -8 3 -32 7 -53 9 -21 3 -42 8
-47 11 -6 4 -12 0 -15 -7z"/>
<path d="M983 2760 c2 -487 6 -896 10 -910 3 -14 8 -43 11 -65 13 -97 43 -233
57 -258 5 -10 7 -22 4 -27 -3 -5 -1 -11 5 -15 5 -3 10 -13 10 -22 0 -19 71
-196 111 -276 96 -191 221 -365 365 -511 105 -105 234 -216 252 -216 6 0 12
-4 14 -8 5 -13 158 -114 158 -105 0 4 4 3 8 -3 4 -6 61 -37 127 -69 175 -85
200 -96 216 -99 8 -2 27 -8 43 -15 16 -6 38 -13 50 -16 11 -2 21 -4 21 -5 0
-1 11 -4 25 -7 38 -7 55 -11 58 -13 1 -2 5 -3 10 -4 54 -14 75 -18 102 -21 18
-3 39 -7 49 -9 82 -25 483 -25 604 0 12 2 38 7 57 10 100 16 332 85 358 107 8
6 17 11 19 9 2 -1 17 5 33 13 17 9 30 12 30 8 0 -5 4 -3 8 2 4 6 36 24 72 40
80 37 169 88 194 112 11 10 16 12 12 5 -5 -7 19 7 52 32 33 25 63 46 66 46 3
0 14 8 24 18 10 9 45 40 77 67 73 62 186 175 233 235 20 25 41 50 47 55 19 18
85 115 85 125 0 6 5 10 10 10 6 0 10 7 10 15 0 8 5 15 10 15 6 0 10 7 10 15 0
8 3 15 8 15 4 0 15 17 25 37 9 21 28 57 42 81 14 23 25 44 25 47 0 3 6 18 14
34 18 34 77 180 81 201 2 8 9 29 15 45 7 17 14 39 16 50 2 11 15 72 29 135 37
172 46 272 44 505 0 72 0 137 0 145 1 8 1 80 0 160 0 80 -1 152 0 160 0 8 0
83 0 165 0 83 0 157 0 165 0 8 0 80 0 160 0 80 0 152 0 160 2 113 0 343 -3
349 -6 8 -959 7 -991 -2 -49 -13 -126 -48 -151 -69 -49 -43 -74 -67 -74 -72 0
-3 -8 -15 -17 -26 -10 -11 -18 -24 -19 -28 0 -4 -6 -20 -13 -37 -19 -48 -29
-78 -37 -110 -4 -16 -8 -300 -9 -630 -2 -605 -5 -691 -29 -781 -14 -52 -66
-167 -78 -172 -5 -2 -8 -8 -8 -14 0 -12 -92 -127 -102 -127 -5 -1 -24 -16 -44
-35 -19 -18 -47 -40 -62 -47 -15 -8 -49 -27 -77 -43 -27 -15 -52 -28 -55 -28
-3 1 -23 -4 -45 -10 -63 -18 -94 -21 -190 -22 -95 -1 -147 5 -205 25 -59 19
-170 72 -170 81 0 4 -7 8 -15 8 -9 0 -53 37 -98 83 -85 85 -151 191 -178 287
-7 25 -14 52 -17 60 -6 19 -11 320 -15 890 -3 430 -5 459 -25 523 -32 102 -77
172 -154 233 -24 19 -85 45 -148 62 -8 2 -234 5 -503 6 l-487 2 3 -886z"/>
</g>
</svg>
